<svg width="400" height="342" viewBox="0 0 142 42" fill="none" xmlns="http://www.w3.org/2000/svg">
<path d="M44.04 33V12H57.75V15.09H47.88V20.85H56.85V23.85H47.88V29.91H57.75V33H44.04ZM69.0337 33.36C67.6337 33.36 66.3837 33.02 65.2837 32.34C64.1837 31.66 63.3137 30.73 62.6737 29.55C62.0337 28.37 61.7137 27.03 61.7137 25.53C61.7137 24.03 62.0337 22.7 62.6737 21.54C63.3137 20.36 64.1837 19.44 65.2837 18.78C66.3837 18.1 67.6337 17.76 69.0337 17.76C70.1537 17.76 71.1338 17.97 71.9738 18.39C72.8138 18.81 73.4938 19.4 74.0138 20.16V11.4H77.8537V33H74.4338L74.0138 30.87C73.5338 31.53 72.8938 32.11 72.0937 32.61C71.3137 33.11 70.2937 33.36 69.0337 33.36ZM69.8438 30C71.0838 30 72.0938 29.59 72.8738 28.77C73.6738 27.93 74.0738 26.86 74.0738 25.56C74.0738 24.26 73.6738 23.2 72.8738 22.38C72.0938 21.54 71.0838 21.12 69.8438 21.12C68.6237 21.12 67.6137 21.53 66.8137 22.35C66.0137 23.17 65.6137 24.23 65.6137 25.53C65.6137 26.83 66.0137 27.9 66.8137 28.74C67.6137 29.58 68.6237 30 69.8438 30ZM88.2441 33.36C86.3841 33.36 84.9441 32.78 83.9241 31.62C82.9241 30.46 82.4241 28.76 82.4241 26.52V18.12H86.2341V26.16C86.2341 27.44 86.4941 28.42 87.0141 29.1C87.5341 29.78 88.3541 30.12 89.4741 30.12C90.5341 30.12 91.4041 29.74 92.0841 28.98C92.7841 28.22 93.1341 27.16 93.1341 25.8V18.12H96.9741V33H93.5841L93.2841 30.48C92.8241 31.36 92.1541 32.06 91.2741 32.58C90.4141 33.1 89.4041 33.36 88.2441 33.36ZM103.466 33.21C102.766 33.21 102.186 32.99 101.726 32.55C101.286 32.11 101.066 31.58 101.066 30.96C101.066 30.32 101.286 29.78 101.726 29.34C102.186 28.9 102.766 28.68 103.466 28.68C104.166 28.68 104.736 28.9 105.176 29.34C105.636 29.78 105.866 30.32 105.866 30.96C105.866 31.58 105.636 32.11 105.176 32.55C104.736 32.99 104.166 33.21 103.466 33.21ZM108.663 33L116.343 12H120.663L128.343 33H124.263L122.583 28.14H114.393L112.683 33H108.663ZM115.443 25.14H121.533L118.473 16.41L115.443 25.14ZM131.948 33V12H135.788V33H131.948Z" fill="white"/>
<path fill-rule="evenodd" clip-rule="evenodd" d="M16.1245 3.01691C15.7125 2.92603 15.2875 2.92603 14.8755 3.01691C14.3993 3.12197 13.9736 3.3777 13.6352 3.58101L13.5429 3.63628L2.07335 10.4708C2.04164 10.4896 2.00897 10.509 1.97549 10.5287C1.61725 10.7404 1.16681 11.0065 0.820904 11.4091C0.52184 11.7572 0.295517 12.1697 0.157068 12.6192C-0.00306725 13.139 -0.00119371 13.6906 0.00029626 14.1292C0.000435541 14.1702 0.000571396 14.2103 0.000571396 14.2492V27.7434C0.000571396 27.7823 0.000435541 27.8223 0.00029626 27.8633C-0.00119371 28.3019 -0.00306725 28.8535 0.157069 29.3733C0.295518 29.8228 0.521842 30.2353 0.820904 30.5834C1.16681 30.986 1.61725 31.2521 1.97549 31.4638C2.00897 31.4836 2.04165 31.5029 2.07336 31.5218L13.5429 38.3562L13.6352 38.4115C13.9736 38.6148 14.3993 38.8705 14.8755 38.9756C15.2875 39.0665 15.7125 39.0665 16.1245 38.9756C16.6007 38.8705 17.0264 38.6148 17.3648 38.4115L17.4571 38.3562L28.9266 31.5218C28.9407 31.5134 28.9549 31.505 28.9693 31.4965C28.9874 31.4857 29.0058 31.4748 29.0245 31.4638C29.3827 31.2521 29.8332 30.986 30.1791 30.5834C30.4782 30.2353 30.7045 29.8228 30.8429 29.3733C31.0031 28.8535 31.0012 28.3019 30.9997 27.8633C30.9996 27.8223 30.9994 27.7823 30.9994 27.7434V14.2492C30.9994 14.2103 30.9996 14.1702 30.9997 14.1293C31.0012 13.6906 31.0031 13.139 30.8429 12.6192C30.7045 12.1697 30.4782 11.7572 30.1791 11.4091C29.8332 11.0065 29.3827 10.7404 29.0245 10.5287L29.0232 10.528C28.9902 10.5085 28.958 10.4894 28.9266 10.4707L17.4571 3.63628L17.3648 3.581C17.0264 3.3777 16.6007 3.12197 16.1245 3.01691ZM15.0484 6.54274C15.2833 6.40278 15.4031 6.33207 15.4926 6.2858L15.5 6.28199L15.5074 6.28579C15.5969 6.33207 15.7168 6.40278 15.9516 6.54274L26.2579 12.684L15.5 19.0944L4.74206 12.6841L15.0484 6.54274ZM3.10046 15.5094L13.95 21.9744L13.9501 34.7953L3.57879 28.6153C3.33087 28.4676 3.2043 28.3913 3.11549 28.3307L3.10799 28.3255L3.10743 28.316C3.1011 28.2032 3.10046 28.0475 3.10046 27.7434V15.5094Z" fill="#3479E0"/>
</svg>
